<mxfile host="app.diagrams.net" agent="Mozilla/5.0 (Windows NT 10.0; Win64; x64) AppleWebKit/537.36 (KHTML, like Gecko) Chrome/138.0.0.0 Safari/537.36" version="28.1.0">
  <diagram name="Page-1" id="yCXQ9Oidx16h1RXyqVqT">
    <mxGraphModel dx="3930" dy="1915" grid="1" gridSize="10" guides="1" tooltips="1" connect="1" arrows="1" fold="1" page="1" pageScale="1" pageWidth="850" pageHeight="1100" math="0" shadow="0">
      <root>
        <mxCell id="0" />
        <mxCell id="1" parent="0" />
        <mxCell id="rL4idEC9B8gkLVKM_BH1-344" value="REPORT" style="whiteSpace=wrap;html=1;" vertex="1" parent="1">
          <mxGeometry x="1480" y="1240" width="180" height="70" as="geometry" />
        </mxCell>
        <mxCell id="rL4idEC9B8gkLVKM_BH1-345" value="LOCATION" style="whiteSpace=wrap;html=1;align=center;" vertex="1" parent="1">
          <mxGeometry x="1275" y="885" width="140" height="70" as="geometry" />
        </mxCell>
        <mxCell id="rL4idEC9B8gkLVKM_BH1-346" value="&lt;div&gt;&lt;br&gt;&lt;/div&gt;CATEGORY&lt;div&gt;&lt;br&gt;&lt;/div&gt;" style="whiteSpace=wrap;html=1;align=center;" vertex="1" parent="1">
          <mxGeometry x="1780" y="870" width="110" height="60" as="geometry" />
        </mxCell>
        <mxCell id="rL4idEC9B8gkLVKM_BH1-347" value="EVIDENCE" style="whiteSpace=wrap;html=1;align=center;" vertex="1" parent="1">
          <mxGeometry x="2210" y="1040" width="90" height="50" as="geometry" />
        </mxCell>
        <mxCell id="rL4idEC9B8gkLVKM_BH1-348" value="RANKING" style="whiteSpace=wrap;html=1;align=center;" vertex="1" parent="1">
          <mxGeometry x="2205" y="1410" width="115" height="60" as="geometry" />
        </mxCell>
        <mxCell id="rL4idEC9B8gkLVKM_BH1-349" value="ANALYSIS" style="whiteSpace=wrap;html=1;align=center;" vertex="1" parent="1">
          <mxGeometry x="1930" y="1740" width="160" height="80" as="geometry" />
        </mxCell>
        <mxCell id="rL4idEC9B8gkLVKM_BH1-350" value="IMPACTSTORY" style="whiteSpace=wrap;html=1;align=center;" vertex="1" parent="1">
          <mxGeometry x="1500" y="1760" width="170" height="80" as="geometry" />
        </mxCell>
        <mxCell id="rL4idEC9B8gkLVKM_BH1-351" value="&lt;div&gt;&lt;br&gt;&lt;/div&gt;USER&lt;div&gt;&lt;br&gt;&lt;/div&gt;" style="rounded=0;whiteSpace=wrap;html=1;shadow=1;" vertex="1" parent="1">
          <mxGeometry x="693.8728751551048" y="858.5691737641089" width="70" height="40" as="geometry" />
        </mxCell>
        <mxCell id="rL4idEC9B8gkLVKM_BH1-352" value="NAME" style="ellipse;whiteSpace=wrap;html=1;align=center;rotation=-13;shadow=1;" vertex="1" parent="1">
          <mxGeometry x="666.8428751551048" y="759.5791737641089" width="89.87" height="41.28" as="geometry" />
        </mxCell>
        <mxCell id="rL4idEC9B8gkLVKM_BH1-353" value="EMAIL" style="ellipse;whiteSpace=wrap;html=1;align=center;rotation=15;shadow=1;" vertex="1" parent="1">
          <mxGeometry x="745.0028751551047" y="781.2291737641089" width="80" height="40" as="geometry" />
        </mxCell>
        <mxCell id="rL4idEC9B8gkLVKM_BH1-354" value="PHONE" style="ellipse;whiteSpace=wrap;html=1;align=center;rotation=-61;shadow=1;" vertex="1" parent="1">
          <mxGeometry x="601.7328751551047" y="829.5591737641089" width="100" height="40" as="geometry" />
        </mxCell>
        <mxCell id="rL4idEC9B8gkLVKM_BH1-355" value="" style="endArrow=none;html=1;rounded=0;exitX=0.5;exitY=0;exitDx=0;exitDy=0;entryX=0.5;entryY=1;entryDx=0;entryDy=0;shadow=1;" edge="1" parent="1" source="rL4idEC9B8gkLVKM_BH1-351" target="rL4idEC9B8gkLVKM_BH1-352">
          <mxGeometry relative="1" as="geometry">
            <mxPoint x="736.7328751551047" y="849.5591737641089" as="sourcePoint" />
            <mxPoint x="706.7328751551047" y="809.5591737641089" as="targetPoint" />
          </mxGeometry>
        </mxCell>
        <mxCell id="rL4idEC9B8gkLVKM_BH1-356" value="" style="endArrow=none;html=1;rounded=0;entryX=0;entryY=0.5;entryDx=0;entryDy=0;exitX=0;exitY=0.5;exitDx=0;exitDy=0;shadow=1;" edge="1" parent="1" source="rL4idEC9B8gkLVKM_BH1-351" target="rL4idEC9B8gkLVKM_BH1-351">
          <mxGeometry relative="1" as="geometry">
            <mxPoint x="686.7328751551047" y="879.5591737641089" as="sourcePoint" />
            <mxPoint x="806.7328751551047" y="868.9691737641089" as="targetPoint" />
            <Array as="points">
              <mxPoint x="666.7328751551047" y="859.5591737641089" />
            </Array>
          </mxGeometry>
        </mxCell>
        <mxCell id="rL4idEC9B8gkLVKM_BH1-357" value="" style="endArrow=none;html=1;rounded=0;exitX=0.75;exitY=0;exitDx=0;exitDy=0;entryX=0.5;entryY=1;entryDx=0;entryDy=0;shadow=1;" edge="1" parent="1" source="rL4idEC9B8gkLVKM_BH1-351" target="rL4idEC9B8gkLVKM_BH1-353">
          <mxGeometry relative="1" as="geometry">
            <mxPoint x="806.7328751551047" y="868.9691737641089" as="sourcePoint" />
            <mxPoint x="802.7328751551047" y="809.5591737641089" as="targetPoint" />
          </mxGeometry>
        </mxCell>
        <mxCell id="rL4idEC9B8gkLVKM_BH1-358" value="USER_ID" style="ellipse;whiteSpace=wrap;html=1;align=center;fontStyle=4;rotation=60;shadow=1;" vertex="1" parent="1">
          <mxGeometry x="788.94" y="847.15" width="84.71" height="35" as="geometry" />
        </mxCell>
        <mxCell id="rL4idEC9B8gkLVKM_BH1-359" value="" style="endArrow=none;html=1;rounded=0;shadow=1;" edge="1" parent="1">
          <mxGeometry relative="1" as="geometry">
            <mxPoint x="771.7328751551047" y="879.5591737641089" as="sourcePoint" />
            <mxPoint x="816.7328751551047" y="879.5591737641089" as="targetPoint" />
          </mxGeometry>
        </mxCell>
        <mxCell id="rL4idEC9B8gkLVKM_BH1-360" value="&amp;nbsp;Address" style="ellipse;whiteSpace=wrap;html=1;align=center;rotation=30;shadow=1;" vertex="1" parent="1">
          <mxGeometry x="631.7328751551047" y="909.9991737641088" width="70" height="40" as="geometry" />
        </mxCell>
        <mxCell id="rL4idEC9B8gkLVKM_BH1-361" value="street" style="ellipse;whiteSpace=wrap;html=1;align=center;rotation=30;shadow=1;" vertex="1" parent="1">
          <mxGeometry x="618.8728751551048" y="999.5591737641089" width="90" height="30" as="geometry" />
        </mxCell>
        <mxCell id="rL4idEC9B8gkLVKM_BH1-362" value="" style="endArrow=none;html=1;rounded=0;entryX=0.388;entryY=1.032;entryDx=0;entryDy=0;entryPerimeter=0;shadow=1;" edge="1" parent="1" target="rL4idEC9B8gkLVKM_BH1-360">
          <mxGeometry relative="1" as="geometry">
            <mxPoint x="631.7828751551046" y="959.5591737641089" as="sourcePoint" />
            <mxPoint x="791.7828751551046" y="959.5591737641089" as="targetPoint" />
          </mxGeometry>
        </mxCell>
        <mxCell id="rL4idEC9B8gkLVKM_BH1-363" value="" style="endArrow=none;html=1;rounded=0;entryX=1;entryY=1;entryDx=0;entryDy=0;exitX=0.5;exitY=0;exitDx=0;exitDy=0;shadow=1;" edge="1" parent="1" source="rL4idEC9B8gkLVKM_BH1-361" target="rL4idEC9B8gkLVKM_BH1-360">
          <mxGeometry relative="1" as="geometry">
            <mxPoint x="676.7328751551047" y="1001.5591737641089" as="sourcePoint" />
            <mxPoint x="856.7328751551047" y="999.5591737641089" as="targetPoint" />
          </mxGeometry>
        </mxCell>
        <mxCell id="rL4idEC9B8gkLVKM_BH1-364" value="" style="endArrow=none;html=1;rounded=0;entryX=0.25;entryY=1;entryDx=0;entryDy=0;exitX=0.5;exitY=0;exitDx=0;exitDy=0;shadow=1;" edge="1" parent="1" source="rL4idEC9B8gkLVKM_BH1-360" target="rL4idEC9B8gkLVKM_BH1-351">
          <mxGeometry relative="1" as="geometry">
            <mxPoint x="701.7328751551047" y="929.5591737641089" as="sourcePoint" />
            <mxPoint x="861.7328751551047" y="929.5591737641089" as="targetPoint" />
          </mxGeometry>
        </mxCell>
        <mxCell id="rL4idEC9B8gkLVKM_BH1-365" value="zip" style="ellipse;whiteSpace=wrap;html=1;align=center;rotation=-60;shadow=1;" vertex="1" parent="1">
          <mxGeometry x="683.8728751551048" y="971.4191737641088" width="55" height="30.51" as="geometry" />
        </mxCell>
        <mxCell id="rL4idEC9B8gkLVKM_BH1-366" value="" style="endArrow=none;html=1;rounded=0;entryX=0.5;entryY=0;entryDx=0;entryDy=0;shadow=1;exitX=0.927;exitY=0.746;exitDx=0;exitDy=0;exitPerimeter=0;" edge="1" parent="1" source="rL4idEC9B8gkLVKM_BH1-360" target="rL4idEC9B8gkLVKM_BH1-365">
          <mxGeometry relative="1" as="geometry">
            <mxPoint x="690" y="960" as="sourcePoint" />
            <mxPoint x="868.8728751551048" y="959.5591737641089" as="targetPoint" />
            <Array as="points" />
          </mxGeometry>
        </mxCell>
        <mxCell id="rL4idEC9B8gkLVKM_BH1-367" value="city" style="ellipse;whiteSpace=wrap;html=1;align=center;rotation=75;" vertex="1" parent="1">
          <mxGeometry x="558.75" y="933.5" width="85" height="40" as="geometry" />
        </mxCell>
        <mxCell id="rL4idEC9B8gkLVKM_BH1-368" value="Subscriptions" style="ellipse;shape=doubleEllipse;margin=3;whiteSpace=wrap;html=1;align=center;rotation=-38;" vertex="1" parent="1">
          <mxGeometry x="759.6500000000001" y="906.62" width="85.8" height="42.37" as="geometry" />
        </mxCell>
        <mxCell id="rL4idEC9B8gkLVKM_BH1-369" value="" style="endArrow=none;html=1;rounded=0;entryX=0.32;entryY=0.098;entryDx=0;entryDy=0;entryPerimeter=0;exitX=0.75;exitY=1;exitDx=0;exitDy=0;" edge="1" parent="1" source="rL4idEC9B8gkLVKM_BH1-351" target="rL4idEC9B8gkLVKM_BH1-368">
          <mxGeometry relative="1" as="geometry">
            <mxPoint x="726.73" y="898.5699999999999" as="sourcePoint" />
            <mxPoint x="886.73" y="898.5699999999999" as="targetPoint" />
          </mxGeometry>
        </mxCell>
        <mxCell id="rL4idEC9B8gkLVKM_BH1-370" value="&lt;br&gt;Report_ID&lt;div&gt;&lt;br/&gt;&lt;/div&gt;" style="ellipse;whiteSpace=wrap;html=1;align=center;fontStyle=4;rotation=-45;" vertex="1" parent="1">
          <mxGeometry x="1365" y="1200" width="120" height="50" as="geometry" />
        </mxCell>
        <mxCell id="rL4idEC9B8gkLVKM_BH1-371" value="Description" style="ellipse;whiteSpace=wrap;html=1;align=center;rotation=7;" vertex="1" parent="1">
          <mxGeometry x="1500" y="1140" width="130" height="70" as="geometry" />
        </mxCell>
        <mxCell id="rL4idEC9B8gkLVKM_BH1-372" value="Date_Submitted&amp;nbsp;" style="ellipse;whiteSpace=wrap;html=1;align=center;" vertex="1" parent="1">
          <mxGeometry x="1700" y="1240" width="100" height="40" as="geometry" />
        </mxCell>
        <mxCell id="rL4idEC9B8gkLVKM_BH1-373" value="" style="endArrow=none;html=1;rounded=0;exitX=0.5;exitY=1;exitDx=0;exitDy=0;entryX=-0.013;entryY=0.404;entryDx=0;entryDy=0;entryPerimeter=0;" edge="1" parent="1" source="rL4idEC9B8gkLVKM_BH1-370" target="rL4idEC9B8gkLVKM_BH1-344">
          <mxGeometry relative="1" as="geometry">
            <mxPoint x="1355" y="1280" as="sourcePoint" />
            <mxPoint x="1515" y="1280" as="targetPoint" />
          </mxGeometry>
        </mxCell>
        <mxCell id="rL4idEC9B8gkLVKM_BH1-374" value="" style="endArrow=none;html=1;rounded=0;entryX=0.398;entryY=1.027;entryDx=0;entryDy=0;entryPerimeter=0;" edge="1" parent="1" target="rL4idEC9B8gkLVKM_BH1-371">
          <mxGeometry relative="1" as="geometry">
            <mxPoint x="1550" y="1230" as="sourcePoint" />
            <mxPoint x="1710" y="1190" as="targetPoint" />
            <Array as="points">
              <mxPoint x="1550" y="1240" />
            </Array>
          </mxGeometry>
        </mxCell>
        <mxCell id="rL4idEC9B8gkLVKM_BH1-375" value="" style="endArrow=none;html=1;rounded=0;entryX=0;entryY=1;entryDx=0;entryDy=0;" edge="1" parent="1" target="rL4idEC9B8gkLVKM_BH1-372">
          <mxGeometry relative="1" as="geometry">
            <mxPoint x="1660" y="1274" as="sourcePoint" />
            <mxPoint x="1820" y="1274" as="targetPoint" />
          </mxGeometry>
        </mxCell>
        <mxCell id="rL4idEC9B8gkLVKM_BH1-376" value="Location" style="ellipse;whiteSpace=wrap;html=1;align=center;rotation=45;" vertex="1" parent="1">
          <mxGeometry x="1409.1" y="1344.72" width="83.34" height="39.39" as="geometry" />
        </mxCell>
        <mxCell id="rL4idEC9B8gkLVKM_BH1-377" value="" style="endArrow=none;html=1;rounded=0;entryX=0;entryY=1;entryDx=0;entryDy=0;exitX=0.368;exitY=0.008;exitDx=0;exitDy=0;exitPerimeter=0;" edge="1" parent="1" source="rL4idEC9B8gkLVKM_BH1-376" target="rL4idEC9B8gkLVKM_BH1-344">
          <mxGeometry relative="1" as="geometry">
            <mxPoint x="1450" y="1327.1399999999999" as="sourcePoint" />
            <mxPoint x="1610" y="1327.1399999999999" as="targetPoint" />
            <Array as="points">
              <mxPoint x="1500" y="1310" />
            </Array>
          </mxGeometry>
        </mxCell>
        <mxCell id="rL4idEC9B8gkLVKM_BH1-378" value="" style="endArrow=none;html=1;rounded=0;entryX=0.345;entryY=0.013;entryDx=0;entryDy=0;entryPerimeter=0;" edge="1" parent="1" target="rL4idEC9B8gkLVKM_BH1-388">
          <mxGeometry relative="1" as="geometry">
            <mxPoint x="1660" y="1310" as="sourcePoint" />
            <mxPoint x="1700" y="1340" as="targetPoint" />
            <Array as="points" />
          </mxGeometry>
        </mxCell>
        <mxCell id="rL4idEC9B8gkLVKM_BH1-379" value="Longitude" style="ellipse;whiteSpace=wrap;html=1;align=center;rotation=60;" vertex="1" parent="1">
          <mxGeometry x="1325.96" y="1369.99" width="70" height="32.01" as="geometry" />
        </mxCell>
        <mxCell id="rL4idEC9B8gkLVKM_BH1-380" value="Latitude" style="ellipse;whiteSpace=wrap;html=1;align=center;rotation=15;" vertex="1" parent="1">
          <mxGeometry x="1385.2600000000002" y="1408.06" width="85" height="40" as="geometry" />
        </mxCell>
        <mxCell id="rL4idEC9B8gkLVKM_BH1-381" value="Time" style="ellipse;whiteSpace=wrap;html=1;align=center;rotation=-30;" vertex="1" parent="1">
          <mxGeometry x="1748.3600000000001" y="1403.1399999999999" width="45.49" height="21.94" as="geometry" />
        </mxCell>
        <mxCell id="rL4idEC9B8gkLVKM_BH1-382" value="Date" style="ellipse;whiteSpace=wrap;html=1;align=center;rotation=-55;" vertex="1" parent="1">
          <mxGeometry x="1793.6100000000001" y="1339.8600000000001" width="70.04" height="30" as="geometry" />
        </mxCell>
        <mxCell id="rL4idEC9B8gkLVKM_BH1-383" value="" style="endArrow=none;html=1;rounded=0;entryX=0;entryY=1;entryDx=0;entryDy=0;exitX=0.5;exitY=0;exitDx=0;exitDy=0;" edge="1" parent="1" source="rL4idEC9B8gkLVKM_BH1-379" target="rL4idEC9B8gkLVKM_BH1-376">
          <mxGeometry relative="1" as="geometry">
            <mxPoint x="1352.0700000000002" y="1353.37" as="sourcePoint" />
            <mxPoint x="1512.0699999999997" y="1353.37" as="targetPoint" />
          </mxGeometry>
        </mxCell>
        <mxCell id="rL4idEC9B8gkLVKM_BH1-384" value="" style="endArrow=none;html=1;rounded=0;entryX=0.5;entryY=1;entryDx=0;entryDy=0;" edge="1" parent="1" target="rL4idEC9B8gkLVKM_BH1-376">
          <mxGeometry relative="1" as="geometry">
            <mxPoint x="1420" y="1410" as="sourcePoint" />
            <mxPoint x="1580" y="1410" as="targetPoint" />
          </mxGeometry>
        </mxCell>
        <mxCell id="rL4idEC9B8gkLVKM_BH1-385" value="" style="endArrow=none;html=1;rounded=0;exitX=1;exitY=1;exitDx=0;exitDy=0;entryX=0.5;entryY=0;entryDx=0;entryDy=0;" edge="1" parent="1" source="rL4idEC9B8gkLVKM_BH1-388" target="rL4idEC9B8gkLVKM_BH1-382">
          <mxGeometry relative="1" as="geometry">
            <mxPoint x="1790" y="1344.1399999999999" as="sourcePoint" />
            <mxPoint x="1950" y="1344.1399999999999" as="targetPoint" />
          </mxGeometry>
        </mxCell>
        <mxCell id="rL4idEC9B8gkLVKM_BH1-386" value="" style="endArrow=none;html=1;rounded=0;exitX=0.406;exitY=0.11;exitDx=0;exitDy=0;exitPerimeter=0;" edge="1" parent="1" source="rL4idEC9B8gkLVKM_BH1-388">
          <mxGeometry relative="1" as="geometry">
            <mxPoint x="1670" y="1420" as="sourcePoint" />
            <mxPoint x="1729" y="1380" as="targetPoint" />
          </mxGeometry>
        </mxCell>
        <mxCell id="rL4idEC9B8gkLVKM_BH1-387" value="" style="endArrow=none;html=1;rounded=0;exitX=0.406;exitY=0.11;exitDx=0;exitDy=0;exitPerimeter=0;" edge="1" parent="1" source="rL4idEC9B8gkLVKM_BH1-381" target="rL4idEC9B8gkLVKM_BH1-388">
          <mxGeometry relative="1" as="geometry">
            <mxPoint x="1721" y="1424" as="sourcePoint" />
            <mxPoint x="1729" y="1380" as="targetPoint" />
          </mxGeometry>
        </mxCell>
        <mxCell id="rL4idEC9B8gkLVKM_BH1-388" value="&lt;font style=&quot;font-size: 9px;&quot; face=&quot;Times New Roman&quot;&gt;&lt;br&gt;Time_Stamp&lt;br&gt;&lt;/font&gt;" style="ellipse;whiteSpace=wrap;html=1;align=center;rotation=-45;" vertex="1" parent="1">
          <mxGeometry x="1721.6" y="1347.58" width="69.06" height="36.61" as="geometry" />
        </mxCell>
        <mxCell id="rL4idEC9B8gkLVKM_BH1-389" value="Location_ID" style="ellipse;whiteSpace=wrap;html=1;align=center;fontStyle=4;rotation=30;" vertex="1" parent="1">
          <mxGeometry x="1205" y="971.4200000000001" width="90" height="46.5" as="geometry" />
        </mxCell>
        <mxCell id="rL4idEC9B8gkLVKM_BH1-390" value="Postal_Code" style="ellipse;whiteSpace=wrap;html=1;align=center;rotation=-55;" vertex="1" parent="1">
          <mxGeometry x="1163.3600000000001" y="878.34" width="100" height="50.44" as="geometry" />
        </mxCell>
        <mxCell id="rL4idEC9B8gkLVKM_BH1-391" value="city" style="ellipse;whiteSpace=wrap;html=1;align=center;" vertex="1" parent="1">
          <mxGeometry x="1263.3600000000001" y="820" width="100" height="42.82" as="geometry" />
        </mxCell>
        <mxCell id="rL4idEC9B8gkLVKM_BH1-392" value="Region" style="ellipse;whiteSpace=wrap;html=1;align=center;rotation=30;" vertex="1" parent="1">
          <mxGeometry x="1386.6599999999999" y="820.19" width="83.48" height="41.04" as="geometry" />
        </mxCell>
        <mxCell id="rL4idEC9B8gkLVKM_BH1-393" value="" style="endArrow=none;html=1;rounded=0;entryX=0.25;entryY=1;entryDx=0;entryDy=0;" edge="1" parent="1" target="rL4idEC9B8gkLVKM_BH1-345">
          <mxGeometry relative="1" as="geometry">
            <mxPoint x="1280" y="990" as="sourcePoint" />
            <mxPoint x="1440" y="990" as="targetPoint" />
          </mxGeometry>
        </mxCell>
        <mxCell id="rL4idEC9B8gkLVKM_BH1-394" value="" style="endArrow=none;html=1;rounded=0;entryX=0;entryY=0.75;entryDx=0;entryDy=0;" edge="1" parent="1" target="rL4idEC9B8gkLVKM_BH1-345">
          <mxGeometry relative="1" as="geometry">
            <mxPoint x="1222.0700000000002" y="933.5" as="sourcePoint" />
            <mxPoint x="1382.0700000000002" y="933.5" as="targetPoint" />
          </mxGeometry>
        </mxCell>
        <mxCell id="rL4idEC9B8gkLVKM_BH1-395" value="" style="endArrow=none;html=1;rounded=0;entryX=0.434;entryY=0.036;entryDx=0;entryDy=0;entryPerimeter=0;" edge="1" parent="1" source="rL4idEC9B8gkLVKM_BH1-391" target="rL4idEC9B8gkLVKM_BH1-345">
          <mxGeometry relative="1" as="geometry">
            <mxPoint x="1352.0700000000002" y="874.84" as="sourcePoint" />
            <mxPoint x="1370" y="880" as="targetPoint" />
            <Array as="points" />
          </mxGeometry>
        </mxCell>
        <mxCell id="rL4idEC9B8gkLVKM_BH1-396" value="" style="endArrow=none;html=1;rounded=0;exitX=0.75;exitY=0;exitDx=0;exitDy=0;entryX=0.265;entryY=1.007;entryDx=0;entryDy=0;entryPerimeter=0;" edge="1" parent="1" source="rL4idEC9B8gkLVKM_BH1-345" target="rL4idEC9B8gkLVKM_BH1-392">
          <mxGeometry relative="1" as="geometry">
            <mxPoint x="1386.6599999999999" y="903.03" as="sourcePoint" />
            <mxPoint x="1546.6599999999999" y="903.03" as="targetPoint" />
          </mxGeometry>
        </mxCell>
        <mxCell id="rL4idEC9B8gkLVKM_BH1-397" value="&amp;nbsp;Category_Name" style="ellipse;whiteSpace=wrap;html=1;align=center;rotation=15;" vertex="1" parent="1">
          <mxGeometry x="1797" y="794.23" width="100" height="40" as="geometry" />
        </mxCell>
        <mxCell id="rL4idEC9B8gkLVKM_BH1-398" value=": Category_ID" style="ellipse;whiteSpace=wrap;html=1;align=center;rotation=-30;" vertex="1" parent="1">
          <mxGeometry x="1670" y="821.23" width="100" height="40" as="geometry" />
        </mxCell>
        <mxCell id="rL4idEC9B8gkLVKM_BH1-399" value="" style="endArrow=none;html=1;rounded=0;exitX=0.5;exitY=1;exitDx=0;exitDy=0;entryX=0;entryY=0.5;entryDx=0;entryDy=0;" edge="1" parent="1" source="rL4idEC9B8gkLVKM_BH1-398" target="rL4idEC9B8gkLVKM_BH1-346">
          <mxGeometry relative="1" as="geometry">
            <mxPoint x="1650" y="910" as="sourcePoint" />
            <mxPoint x="1810" y="910" as="targetPoint" />
          </mxGeometry>
        </mxCell>
        <mxCell id="rL4idEC9B8gkLVKM_BH1-400" value="" style="endArrow=none;html=1;rounded=0;entryX=0.348;entryY=0.985;entryDx=0;entryDy=0;entryPerimeter=0;exitX=0.25;exitY=0;exitDx=0;exitDy=0;" edge="1" parent="1" source="rL4idEC9B8gkLVKM_BH1-346" target="rL4idEC9B8gkLVKM_BH1-397">
          <mxGeometry relative="1" as="geometry">
            <mxPoint x="1740" y="840.28" as="sourcePoint" />
            <mxPoint x="1900" y="840.28" as="targetPoint" />
          </mxGeometry>
        </mxCell>
        <mxCell id="rL4idEC9B8gkLVKM_BH1-401" value="File_link" style="ellipse;whiteSpace=wrap;html=1;align=center;rotation=30;" vertex="1" parent="1">
          <mxGeometry x="2240" y="974.6700000000001" width="100" height="40" as="geometry" />
        </mxCell>
        <mxCell id="rL4idEC9B8gkLVKM_BH1-402" value="&amp;nbsp;Evidence_ID" style="ellipse;whiteSpace=wrap;html=1;align=center;fontStyle=4;rotation=90;" vertex="1" parent="1">
          <mxGeometry x="2310" y="1060" width="100" height="40" as="geometry" />
        </mxCell>
        <mxCell id="rL4idEC9B8gkLVKM_BH1-403" value="GPS" style="ellipse;whiteSpace=wrap;html=1;align=center;" vertex="1" parent="1">
          <mxGeometry x="2220" y="1120" width="100" height="40" as="geometry" />
        </mxCell>
        <mxCell id="rL4idEC9B8gkLVKM_BH1-404" value="Type" style="ellipse;whiteSpace=wrap;html=1;align=center;rotation=-15;" vertex="1" parent="1">
          <mxGeometry x="2120" y="989.56" width="100" height="40" as="geometry" />
        </mxCell>
        <mxCell id="rL4idEC9B8gkLVKM_BH1-405" value="&lt;br&gt;Latitude&lt;div&gt;&lt;br/&gt;&lt;/div&gt;" style="ellipse;whiteSpace=wrap;html=1;align=center;" vertex="1" parent="1">
          <mxGeometry x="2175" y="1189" width="100" height="40" as="geometry" />
        </mxCell>
        <mxCell id="rL4idEC9B8gkLVKM_BH1-406" value="Longitude" style="ellipse;whiteSpace=wrap;html=1;align=center;rotation=-30;" vertex="1" parent="1">
          <mxGeometry x="2290" y="1180" width="100" height="40" as="geometry" />
        </mxCell>
        <mxCell id="rL4idEC9B8gkLVKM_BH1-407" value="" style="endArrow=none;html=1;rounded=0;exitX=0.5;exitY=1;exitDx=0;exitDy=0;entryX=0;entryY=0.5;entryDx=0;entryDy=0;" edge="1" parent="1" source="rL4idEC9B8gkLVKM_BH1-404" target="rL4idEC9B8gkLVKM_BH1-347">
          <mxGeometry relative="1" as="geometry">
            <mxPoint x="2190" y="1040" as="sourcePoint" />
            <mxPoint x="2250" y="1050" as="targetPoint" />
          </mxGeometry>
        </mxCell>
        <mxCell id="rL4idEC9B8gkLVKM_BH1-408" value="" style="endArrow=none;html=1;rounded=0;entryX=0;entryY=1;entryDx=0;entryDy=0;exitX=0.25;exitY=0;exitDx=0;exitDy=0;" edge="1" parent="1" source="rL4idEC9B8gkLVKM_BH1-347" target="rL4idEC9B8gkLVKM_BH1-401">
          <mxGeometry relative="1" as="geometry">
            <mxPoint x="2230" y="1029.56" as="sourcePoint" />
            <mxPoint x="2390" y="1029.56" as="targetPoint" />
          </mxGeometry>
        </mxCell>
        <mxCell id="rL4idEC9B8gkLVKM_BH1-409" value="" style="endArrow=none;html=1;rounded=0;exitX=1;exitY=0.5;exitDx=0;exitDy=0;" edge="1" parent="1" source="rL4idEC9B8gkLVKM_BH1-347" target="rL4idEC9B8gkLVKM_BH1-402">
          <mxGeometry relative="1" as="geometry">
            <mxPoint x="2360" y="1060" as="sourcePoint" />
            <mxPoint x="2520" y="1060" as="targetPoint" />
          </mxGeometry>
        </mxCell>
        <mxCell id="rL4idEC9B8gkLVKM_BH1-410" value="" style="endArrow=none;html=1;rounded=0;exitX=0.5;exitY=1;exitDx=0;exitDy=0;entryX=0.5;entryY=0;entryDx=0;entryDy=0;" edge="1" parent="1" source="rL4idEC9B8gkLVKM_BH1-347" target="rL4idEC9B8gkLVKM_BH1-403">
          <mxGeometry relative="1" as="geometry">
            <mxPoint x="2195" y="1110" as="sourcePoint" />
            <mxPoint x="2355" y="1110" as="targetPoint" />
          </mxGeometry>
        </mxCell>
        <mxCell id="rL4idEC9B8gkLVKM_BH1-411" value="" style="endArrow=none;html=1;rounded=0;entryX=0;entryY=1;entryDx=0;entryDy=0;" edge="1" parent="1" target="rL4idEC9B8gkLVKM_BH1-403">
          <mxGeometry relative="1" as="geometry">
            <mxPoint x="2210" y="1187.67" as="sourcePoint" />
            <mxPoint x="2370" y="1187.67" as="targetPoint" />
          </mxGeometry>
        </mxCell>
        <mxCell id="rL4idEC9B8gkLVKM_BH1-412" value="" style="endArrow=none;html=1;rounded=0;entryX=0.5;entryY=0;entryDx=0;entryDy=0;" edge="1" parent="1" target="rL4idEC9B8gkLVKM_BH1-406">
          <mxGeometry relative="1" as="geometry">
            <mxPoint x="2300" y="1158.67" as="sourcePoint" />
            <mxPoint x="2460" y="1158.67" as="targetPoint" />
          </mxGeometry>
        </mxCell>
        <mxCell id="rL4idEC9B8gkLVKM_BH1-413" value="Score" style="ellipse;whiteSpace=wrap;html=1;align=center;" vertex="1" parent="1">
          <mxGeometry x="2195" y="1510" width="100" height="40" as="geometry" />
        </mxCell>
        <mxCell id="rL4idEC9B8gkLVKM_BH1-414" value="Ranking_ID" style="ellipse;whiteSpace=wrap;html=1;align=center;fontStyle=4;rotation=-30;" vertex="1" parent="1">
          <mxGeometry x="2300" y="1490" width="100" height="40" as="geometry" />
        </mxCell>
        <mxCell id="rL4idEC9B8gkLVKM_BH1-415" value="" style="endArrow=none;html=1;rounded=0;entryX=0.5;entryY=1;entryDx=0;entryDy=0;exitX=0.5;exitY=0;exitDx=0;exitDy=0;" edge="1" parent="1" source="rL4idEC9B8gkLVKM_BH1-413" target="rL4idEC9B8gkLVKM_BH1-348">
          <mxGeometry relative="1" as="geometry">
            <mxPoint x="2160" y="1500" as="sourcePoint" />
            <mxPoint x="2320" y="1500" as="targetPoint" />
          </mxGeometry>
        </mxCell>
        <mxCell id="rL4idEC9B8gkLVKM_BH1-416" value="" style="endArrow=none;html=1;rounded=0;exitX=0.707;exitY=1.029;exitDx=0;exitDy=0;exitPerimeter=0;entryX=0.418;entryY=0.031;entryDx=0;entryDy=0;entryPerimeter=0;" edge="1" parent="1" source="rL4idEC9B8gkLVKM_BH1-348" target="rL4idEC9B8gkLVKM_BH1-414">
          <mxGeometry relative="1" as="geometry">
            <mxPoint x="2290" y="1490" as="sourcePoint" />
            <mxPoint x="2450" y="1490" as="targetPoint" />
          </mxGeometry>
        </mxCell>
        <mxCell id="rL4idEC9B8gkLVKM_BH1-417" value="&amp;nbsp;Ranking_Type" style="ellipse;whiteSpace=wrap;html=1;align=center;" vertex="1" parent="1">
          <mxGeometry x="2212.5" y="1344.1399999999999" width="100" height="40" as="geometry" />
        </mxCell>
        <mxCell id="rL4idEC9B8gkLVKM_BH1-418" value="" style="endArrow=none;html=1;rounded=0;entryX=0.5;entryY=1;entryDx=0;entryDy=0;exitX=0.5;exitY=0;exitDx=0;exitDy=0;" edge="1" parent="1" source="rL4idEC9B8gkLVKM_BH1-348" target="rL4idEC9B8gkLVKM_BH1-417">
          <mxGeometry relative="1" as="geometry">
            <mxPoint x="2190" y="1400" as="sourcePoint" />
            <mxPoint x="2350" y="1400" as="targetPoint" />
          </mxGeometry>
        </mxCell>
        <mxCell id="rL4idEC9B8gkLVKM_BH1-419" value="CASE" style="whiteSpace=wrap;html=1;align=center;" vertex="1" parent="1">
          <mxGeometry x="460.1412701892218" y="1570.0005080756887" width="110" height="50" as="geometry" />
        </mxCell>
        <mxCell id="rL4idEC9B8gkLVKM_BH1-420" value="Status" style="ellipse;whiteSpace=wrap;html=1;align=center;rotation=30;" vertex="1" parent="1">
          <mxGeometry x="363.3012701892219" y="1626.1105080756888" width="100" height="40" as="geometry" />
        </mxCell>
        <mxCell id="rL4idEC9B8gkLVKM_BH1-421" value="" style="endArrow=none;html=1;rounded=0;exitX=0.5;exitY=1;exitDx=0;exitDy=0;entryX=0;entryY=0;entryDx=0;entryDy=0;" edge="1" parent="1" target="rL4idEC9B8gkLVKM_BH1-419">
          <mxGeometry relative="1" as="geometry">
            <mxPoint x="423.3012701892219" y="1532.5710161513775" as="sourcePoint" />
            <mxPoint x="560.1412701892218" y="1546.1105080756888" as="targetPoint" />
          </mxGeometry>
        </mxCell>
        <mxCell id="rL4idEC9B8gkLVKM_BH1-422" value="" style="endArrow=none;html=1;rounded=0;entryX=0;entryY=1;entryDx=0;entryDy=0;" edge="1" parent="1" target="rL4idEC9B8gkLVKM_BH1-419">
          <mxGeometry relative="1" as="geometry">
            <mxPoint x="418.3012701892219" y="1625.0005080756887" as="sourcePoint" />
            <mxPoint x="578.3012701892219" y="1625.0005080756887" as="targetPoint" />
          </mxGeometry>
        </mxCell>
        <mxCell id="rL4idEC9B8gkLVKM_BH1-423" value="Case_ID" style="ellipse;whiteSpace=wrap;html=1;align=center;fontStyle=4;rotation=-30;" vertex="1" parent="1">
          <mxGeometry x="383.3012701892219" y="1492.3205080756888" width="100" height="40" as="geometry" />
        </mxCell>
        <mxCell id="rL4idEC9B8gkLVKM_BH1-424" value="Message" style="ellipse;whiteSpace=wrap;html=1;align=center;rotation=-15;" vertex="1" parent="1">
          <mxGeometry x="460.1399999999999" y="1160" width="100" height="40" as="geometry" />
        </mxCell>
        <mxCell id="rL4idEC9B8gkLVKM_BH1-425" value="Date" style="ellipse;whiteSpace=wrap;html=1;align=center;rotation=-45;" vertex="1" parent="1">
          <mxGeometry x="590" y="1264.1399999999999" width="100" height="40" as="geometry" />
        </mxCell>
        <mxCell id="rL4idEC9B8gkLVKM_BH1-426" value="Alert_Type" style="ellipse;whiteSpace=wrap;html=1;align=center;rotation=20;" vertex="1" parent="1">
          <mxGeometry x="495" y="1304.1399999999999" width="100" height="40" as="geometry" />
        </mxCell>
        <mxCell id="rL4idEC9B8gkLVKM_BH1-427" value="" style="endArrow=none;html=1;rounded=0;exitX=0.654;exitY=1.068;exitDx=0;exitDy=0;exitPerimeter=0;entryX=0.25;entryY=0;entryDx=0;entryDy=0;" edge="1" parent="1" source="rL4idEC9B8gkLVKM_BH1-424">
          <mxGeometry relative="1" as="geometry">
            <mxPoint x="530" y="1190" as="sourcePoint" />
            <mxPoint x="540.8174999999999" y="1220" as="targetPoint" />
          </mxGeometry>
        </mxCell>
        <mxCell id="rL4idEC9B8gkLVKM_BH1-428" value="" style="endArrow=none;html=1;rounded=0;entryX=0;entryY=0.75;entryDx=0;entryDy=0;" edge="1" parent="1">
          <mxGeometry relative="1" as="geometry">
            <mxPoint x="476.73" y="1264.1399999999999" as="sourcePoint" />
            <mxPoint x="520" y="1257.5" as="targetPoint" />
          </mxGeometry>
        </mxCell>
        <mxCell id="rL4idEC9B8gkLVKM_BH1-429" value="" style="endArrow=none;html=1;rounded=0;entryX=0.362;entryY=1.085;entryDx=0;entryDy=0;entryPerimeter=0;" edge="1" parent="1" target="rL4idEC9B8gkLVKM_BH1-513">
          <mxGeometry relative="1" as="geometry">
            <mxPoint x="533.8699999999999" y="1300" as="sourcePoint" />
            <mxPoint x="561.6350000000002" y="1270" as="targetPoint" />
          </mxGeometry>
        </mxCell>
        <mxCell id="rL4idEC9B8gkLVKM_BH1-430" value="" style="endArrow=none;html=1;rounded=0;exitX=0.5;exitY=1;exitDx=0;exitDy=0;entryX=0.223;entryY=0.014;entryDx=0;entryDy=0;entryPerimeter=0;" edge="1" parent="1" source="rL4idEC9B8gkLVKM_BH1-513" target="rL4idEC9B8gkLVKM_BH1-425">
          <mxGeometry relative="1" as="geometry">
            <mxPoint x="582.4525000000001" y="1270" as="sourcePoint" />
            <mxPoint x="690" y="1190" as="targetPoint" />
          </mxGeometry>
        </mxCell>
        <mxCell id="rL4idEC9B8gkLVKM_BH1-431" value="Protection_Level" style="ellipse;whiteSpace=wrap;html=1;align=center;rotation=-45;" vertex="1" parent="1">
          <mxGeometry x="1000" y="1840" width="198.49" height="70" as="geometry" />
        </mxCell>
        <mxCell id="rL4idEC9B8gkLVKM_BH1-432" value="Encryption_Techniques" style="ellipse;whiteSpace=wrap;html=1;align=center;rotation=30;" vertex="1" parent="1">
          <mxGeometry x="696.3699999999999" y="1920.67" width="153.63" height="78.33" as="geometry" />
        </mxCell>
        <mxCell id="rL4idEC9B8gkLVKM_BH1-433" value="Attribute" style="ellipse;whiteSpace=wrap;html=1;align=center;rotation=30;" vertex="1" parent="1">
          <mxGeometry x="608.8699999999999" y="1970.03" width="100" height="40" as="geometry" />
        </mxCell>
        <mxCell id="rL4idEC9B8gkLVKM_BH1-434" value="Attribute" style="ellipse;whiteSpace=wrap;html=1;align=center;" vertex="1" parent="1">
          <mxGeometry x="693.8699999999999" y="2030" width="100" height="40" as="geometry" />
        </mxCell>
        <mxCell id="rL4idEC9B8gkLVKM_BH1-435" value="" style="endArrow=none;html=1;rounded=0;entryX=0.25;entryY=1;entryDx=0;entryDy=0;" edge="1" parent="1">
          <mxGeometry relative="1" as="geometry">
            <mxPoint x="800" y="1930" as="sourcePoint" />
            <mxPoint x="816.6775000000002" y="1833" as="targetPoint" />
          </mxGeometry>
        </mxCell>
        <mxCell id="rL4idEC9B8gkLVKM_BH1-436" value="" style="endArrow=none;html=1;rounded=0;entryX=0.5;entryY=1;entryDx=0;entryDy=0;" edge="1" parent="1">
          <mxGeometry relative="1" as="geometry">
            <mxPoint x="900" y="1956" as="sourcePoint" />
            <mxPoint x="873.355" y="1833" as="targetPoint" />
          </mxGeometry>
        </mxCell>
        <mxCell id="rL4idEC9B8gkLVKM_BH1-437" value="" style="endArrow=none;html=1;rounded=0;entryX=0.258;entryY=0.11;entryDx=0;entryDy=0;entryPerimeter=0;exitX=0.831;exitY=1.03;exitDx=0;exitDy=0;exitPerimeter=0;" edge="1" parent="1" target="rL4idEC9B8gkLVKM_BH1-431">
          <mxGeometry relative="1" as="geometry">
            <mxPoint x="948.3960099999999" y="1836" as="sourcePoint" />
            <mxPoint x="1010" y="1860" as="targetPoint" />
          </mxGeometry>
        </mxCell>
        <mxCell id="rL4idEC9B8gkLVKM_BH1-438" value="" style="endArrow=none;html=1;rounded=0;entryX=0.236;entryY=0.944;entryDx=0;entryDy=0;entryPerimeter=0;" edge="1" parent="1" target="rL4idEC9B8gkLVKM_BH1-432">
          <mxGeometry relative="1" as="geometry">
            <mxPoint x="678.8699999999999" y="1980" as="sourcePoint" />
            <mxPoint x="838.8699999999999" y="1980" as="targetPoint" />
          </mxGeometry>
        </mxCell>
        <mxCell id="rL4idEC9B8gkLVKM_BH1-439" value="" style="endArrow=none;html=1;rounded=0;" edge="1" parent="1">
          <mxGeometry relative="1" as="geometry">
            <mxPoint x="746.73" y="2028.57" as="sourcePoint" />
            <mxPoint x="760" y="2000" as="targetPoint" />
          </mxGeometry>
        </mxCell>
        <mxCell id="rL4idEC9B8gkLVKM_BH1-440" value="Story_ID," style="ellipse;whiteSpace=wrap;html=1;align=center;fontStyle=4;rotation=15;" vertex="1" parent="1">
          <mxGeometry x="1444" y="1879.73" width="101.29" height="60" as="geometry" />
        </mxCell>
        <mxCell id="rL4idEC9B8gkLVKM_BH1-441" value="Attribute" style="ellipse;whiteSpace=wrap;html=1;align=center;rotation=-15;" vertex="1" parent="1">
          <mxGeometry x="1560" y="1891.85" width="100" height="58.21" as="geometry" />
        </mxCell>
        <mxCell id="rL4idEC9B8gkLVKM_BH1-442" value="Attribute" style="ellipse;whiteSpace=wrap;html=1;align=center;rotation=-45;" vertex="1" parent="1">
          <mxGeometry x="1653.04" y="1850.27" width="121.1" height="59.73" as="geometry" />
        </mxCell>
        <mxCell id="rL4idEC9B8gkLVKM_BH1-443" value="" style="endArrow=none;html=1;rounded=0;exitX=0.5;exitY=0;exitDx=0;exitDy=0;entryX=0.341;entryY=1.037;entryDx=0;entryDy=0;entryPerimeter=0;" edge="1" parent="1" source="rL4idEC9B8gkLVKM_BH1-440" target="rL4idEC9B8gkLVKM_BH1-350">
          <mxGeometry relative="1" as="geometry">
            <mxPoint x="1500" y="1860" as="sourcePoint" />
            <mxPoint x="1660" y="1860" as="targetPoint" />
          </mxGeometry>
        </mxCell>
        <mxCell id="rL4idEC9B8gkLVKM_BH1-444" value="" style="endArrow=none;html=1;rounded=0;exitX=0.5;exitY=1;exitDx=0;exitDy=0;entryX=0.348;entryY=-0.023;entryDx=0;entryDy=0;entryPerimeter=0;" edge="1" parent="1" source="rL4idEC9B8gkLVKM_BH1-350" target="rL4idEC9B8gkLVKM_BH1-441">
          <mxGeometry relative="1" as="geometry">
            <mxPoint x="1630" y="1849.2" as="sourcePoint" />
            <mxPoint x="1790" y="1849.2" as="targetPoint" />
          </mxGeometry>
        </mxCell>
        <mxCell id="rL4idEC9B8gkLVKM_BH1-445" value="" style="endArrow=none;html=1;rounded=0;entryX=0.5;entryY=0;entryDx=0;entryDy=0;" edge="1" parent="1" target="rL4idEC9B8gkLVKM_BH1-442">
          <mxGeometry relative="1" as="geometry">
            <mxPoint x="1650" y="1840" as="sourcePoint" />
            <mxPoint x="1670" y="1760" as="targetPoint" />
          </mxGeometry>
        </mxCell>
        <mxCell id="rL4idEC9B8gkLVKM_BH1-446" value="Data" style="ellipse;whiteSpace=wrap;html=1;align=center;rotation=5;" vertex="1" parent="1">
          <mxGeometry x="1894.02" y="1887.57" width="110.87" height="60" as="geometry" />
        </mxCell>
        <mxCell id="rL4idEC9B8gkLVKM_BH1-447" value="&#xa;Analytics_ID&#xa;&#xa;" style="ellipse;whiteSpace=wrap;html=1;align=center;fontStyle=4;rotation=-45;" vertex="1" parent="1">
          <mxGeometry x="2121.87" y="1790.12" width="108.45" height="70" as="geometry" />
        </mxCell>
        <mxCell id="rL4idEC9B8gkLVKM_BH1-448" value="Type" style="ellipse;whiteSpace=wrap;html=1;align=center;rotation=-15;" vertex="1" parent="1">
          <mxGeometry x="2020" y="1865.4299999999998" width="116.08" height="72.59" as="geometry" />
        </mxCell>
        <mxCell id="rL4idEC9B8gkLVKM_BH1-449" value="" style="endArrow=none;html=1;rounded=0;exitX=0.5;exitY=1;exitDx=0;exitDy=0;" edge="1" parent="1" source="rL4idEC9B8gkLVKM_BH1-349">
          <mxGeometry relative="1" as="geometry">
            <mxPoint x="1950" y="1840" as="sourcePoint" />
            <mxPoint x="1950" y="1887" as="targetPoint" />
          </mxGeometry>
        </mxCell>
        <mxCell id="rL4idEC9B8gkLVKM_BH1-450" value="" style="endArrow=none;html=1;rounded=0;entryX=0.34;entryY=0.053;entryDx=0;entryDy=0;entryPerimeter=0;exitX=0.621;exitY=0.983;exitDx=0;exitDy=0;exitPerimeter=0;" edge="1" parent="1" source="rL4idEC9B8gkLVKM_BH1-349" target="rL4idEC9B8gkLVKM_BH1-448">
          <mxGeometry relative="1" as="geometry">
            <mxPoint x="2035" y="1830" as="sourcePoint" />
            <mxPoint x="2060" y="1860" as="targetPoint" />
          </mxGeometry>
        </mxCell>
        <mxCell id="rL4idEC9B8gkLVKM_BH1-451" value="" style="endArrow=none;html=1;rounded=0;exitX=1;exitY=0.75;exitDx=0;exitDy=0;" edge="1" parent="1" source="rL4idEC9B8gkLVKM_BH1-349" target="rL4idEC9B8gkLVKM_BH1-447">
          <mxGeometry relative="1" as="geometry">
            <mxPoint x="2070" y="1799.29" as="sourcePoint" />
            <mxPoint x="2230" y="1799.29" as="targetPoint" />
          </mxGeometry>
        </mxCell>
        <mxCell id="rL4idEC9B8gkLVKM_BH1-452" value="Submits" style="shape=rhombus;perimeter=rhombusPerimeter;whiteSpace=wrap;html=1;align=center;rotation=30;" vertex="1" parent="1">
          <mxGeometry x="825" y="1040" width="157.5" height="110" as="geometry" />
        </mxCell>
        <mxCell id="rL4idEC9B8gkLVKM_BH1-453" value="" style="endArrow=none;html=1;rounded=0;entryX=0;entryY=0.5;entryDx=0;entryDy=0;" edge="1" parent="1" target="rL4idEC9B8gkLVKM_BH1-452">
          <mxGeometry relative="1" as="geometry">
            <mxPoint x="730" y="900" as="sourcePoint" />
            <mxPoint x="830" y="1040" as="targetPoint" />
            <Array as="points">
              <mxPoint x="790" y="990" />
            </Array>
          </mxGeometry>
        </mxCell>
        <mxCell id="rL4idEC9B8gkLVKM_BH1-454" value="1" style="resizable=0;html=1;whiteSpace=wrap;align=right;verticalAlign=bottom;" connectable="0" vertex="1" parent="rL4idEC9B8gkLVKM_BH1-453">
          <mxGeometry x="1" relative="1" as="geometry">
            <mxPoint x="11" y="-15" as="offset" />
          </mxGeometry>
        </mxCell>
        <mxCell id="rL4idEC9B8gkLVKM_BH1-455" value="" style="endArrow=none;html=1;rounded=0;exitX=1;exitY=0.5;exitDx=0;exitDy=0;entryX=-0.005;entryY=0.901;entryDx=0;entryDy=0;entryPerimeter=0;" edge="1" parent="1" source="rL4idEC9B8gkLVKM_BH1-452" target="rL4idEC9B8gkLVKM_BH1-344">
          <mxGeometry relative="1" as="geometry">
            <mxPoint x="1180" y="1140" as="sourcePoint" />
            <mxPoint x="1470" y="1300" as="targetPoint" />
          </mxGeometry>
        </mxCell>
        <mxCell id="rL4idEC9B8gkLVKM_BH1-456" value="N" style="resizable=0;html=1;whiteSpace=wrap;align=right;verticalAlign=bottom;" connectable="0" vertex="1" parent="rL4idEC9B8gkLVKM_BH1-455">
          <mxGeometry x="1" relative="1" as="geometry">
            <mxPoint x="-160" y="-70" as="offset" />
          </mxGeometry>
        </mxCell>
        <mxCell id="rL4idEC9B8gkLVKM_BH1-457" value="belongs_to" style="shape=rhombus;perimeter=rhombusPerimeter;whiteSpace=wrap;html=1;align=center;rotation=-60;" vertex="1" parent="1">
          <mxGeometry x="1690" y="1050" width="120" height="60" as="geometry" />
        </mxCell>
        <mxCell id="rL4idEC9B8gkLVKM_BH1-458" value="" style="endArrow=none;html=1;rounded=0;exitX=1;exitY=1;exitDx=0;exitDy=0;entryX=1;entryY=0.5;entryDx=0;entryDy=0;" edge="1" parent="1" source="rL4idEC9B8gkLVKM_BH1-346" target="rL4idEC9B8gkLVKM_BH1-457">
          <mxGeometry relative="1" as="geometry">
            <mxPoint x="1760" y="950" as="sourcePoint" />
            <mxPoint x="1830" y="1050" as="targetPoint" />
          </mxGeometry>
        </mxCell>
        <mxCell id="rL4idEC9B8gkLVKM_BH1-459" value="1" style="resizable=0;html=1;whiteSpace=wrap;align=right;verticalAlign=bottom;" connectable="0" vertex="1" parent="rL4idEC9B8gkLVKM_BH1-458">
          <mxGeometry x="1" relative="1" as="geometry">
            <mxPoint x="55" y="-10" as="offset" />
          </mxGeometry>
        </mxCell>
        <mxCell id="rL4idEC9B8gkLVKM_BH1-460" value="" style="endArrow=none;html=1;rounded=0;exitX=0;exitY=0.5;exitDx=0;exitDy=0;entryX=1;entryY=0;entryDx=0;entryDy=0;" edge="1" parent="1" source="rL4idEC9B8gkLVKM_BH1-457" target="rL4idEC9B8gkLVKM_BH1-344">
          <mxGeometry relative="1" as="geometry">
            <mxPoint x="1710" y="1130" as="sourcePoint" />
            <mxPoint x="1660" y="1230" as="targetPoint" />
          </mxGeometry>
        </mxCell>
        <mxCell id="rL4idEC9B8gkLVKM_BH1-461" value="N" style="resizable=0;html=1;whiteSpace=wrap;align=right;verticalAlign=bottom;" connectable="0" vertex="1" parent="rL4idEC9B8gkLVKM_BH1-460">
          <mxGeometry x="1" relative="1" as="geometry">
            <mxPoint x="20" y="-51" as="offset" />
          </mxGeometry>
        </mxCell>
        <mxCell id="rL4idEC9B8gkLVKM_BH1-462" value="&amp;nbsp;Occurs_At&amp;nbsp;" style="shape=rhombus;perimeter=rhombusPerimeter;whiteSpace=wrap;html=1;align=center;rotation=70;" vertex="1" parent="1">
          <mxGeometry x="1386.6599999999999" y="1035" width="120" height="60" as="geometry" />
        </mxCell>
        <mxCell id="rL4idEC9B8gkLVKM_BH1-463" value="" style="endArrow=none;html=1;rounded=0;exitX=1;exitY=0.5;exitDx=0;exitDy=0;entryX=0.146;entryY=0.05;entryDx=0;entryDy=0;entryPerimeter=0;" edge="1" parent="1" source="rL4idEC9B8gkLVKM_BH1-462" target="rL4idEC9B8gkLVKM_BH1-344">
          <mxGeometry relative="1" as="geometry">
            <mxPoint x="1610" y="1100" as="sourcePoint" />
            <mxPoint x="1770" y="1100" as="targetPoint" />
          </mxGeometry>
        </mxCell>
        <mxCell id="rL4idEC9B8gkLVKM_BH1-464" value="N" style="resizable=0;html=1;whiteSpace=wrap;align=right;verticalAlign=bottom;" connectable="0" vertex="1" parent="rL4idEC9B8gkLVKM_BH1-463">
          <mxGeometry x="1" relative="1" as="geometry">
            <mxPoint x="-36" y="-73" as="offset" />
          </mxGeometry>
        </mxCell>
        <mxCell id="rL4idEC9B8gkLVKM_BH1-465" value="" style="endArrow=none;html=1;rounded=0;exitX=1;exitY=1;exitDx=0;exitDy=0;entryX=0;entryY=0.5;entryDx=0;entryDy=0;" edge="1" parent="1" source="rL4idEC9B8gkLVKM_BH1-345" target="rL4idEC9B8gkLVKM_BH1-462">
          <mxGeometry relative="1" as="geometry">
            <mxPoint x="1475" y="1017.05" as="sourcePoint" />
            <mxPoint x="1635" y="1017.05" as="targetPoint" />
          </mxGeometry>
        </mxCell>
        <mxCell id="rL4idEC9B8gkLVKM_BH1-466" value="1" style="resizable=0;html=1;whiteSpace=wrap;align=right;verticalAlign=bottom;" connectable="0" vertex="1" parent="rL4idEC9B8gkLVKM_BH1-465">
          <mxGeometry x="1" relative="1" as="geometry">
            <mxPoint x="-11" y="-9" as="offset" />
          </mxGeometry>
        </mxCell>
        <mxCell id="rL4idEC9B8gkLVKM_BH1-467" value="Has_Evidence" style="shape=rhombus;perimeter=rhombusPerimeter;whiteSpace=wrap;html=1;align=center;rotation=-15;" vertex="1" parent="1">
          <mxGeometry x="1910" y="1110" width="120" height="70" as="geometry" />
        </mxCell>
        <mxCell id="rL4idEC9B8gkLVKM_BH1-468" value="" style="endArrow=none;html=1;rounded=0;" edge="1" parent="1">
          <mxGeometry relative="1" as="geometry">
            <mxPoint x="1660" y="1240" as="sourcePoint" />
            <mxPoint x="1910" y="1160" as="targetPoint" />
          </mxGeometry>
        </mxCell>
        <mxCell id="rL4idEC9B8gkLVKM_BH1-469" value="1" style="resizable=0;html=1;whiteSpace=wrap;align=right;verticalAlign=bottom;" connectable="0" vertex="1" parent="rL4idEC9B8gkLVKM_BH1-468">
          <mxGeometry x="1" relative="1" as="geometry">
            <mxPoint x="-110" y="15" as="offset" />
          </mxGeometry>
        </mxCell>
        <mxCell id="rL4idEC9B8gkLVKM_BH1-470" value="" style="endArrow=none;html=1;rounded=0;entryX=0;entryY=1;entryDx=0;entryDy=0;" edge="1" parent="1" target="rL4idEC9B8gkLVKM_BH1-347">
          <mxGeometry relative="1" as="geometry">
            <mxPoint x="2030" y="1130" as="sourcePoint" />
            <mxPoint x="2170" y="1120" as="targetPoint" />
          </mxGeometry>
        </mxCell>
        <mxCell id="rL4idEC9B8gkLVKM_BH1-471" value="N" style="resizable=0;html=1;whiteSpace=wrap;align=right;verticalAlign=bottom;" connectable="0" vertex="1" parent="rL4idEC9B8gkLVKM_BH1-470">
          <mxGeometry x="1" relative="1" as="geometry">
            <mxPoint x="-120" y="10" as="offset" />
          </mxGeometry>
        </mxCell>
        <mxCell id="rL4idEC9B8gkLVKM_BH1-472" value="Leads_To&amp;nbsp;" style="shape=rhombus;perimeter=rhombusPerimeter;whiteSpace=wrap;html=1;align=center;rotation=-35;" vertex="1" parent="1">
          <mxGeometry x="871.5899999999999" y="1410" width="120" height="60" as="geometry" />
        </mxCell>
        <mxCell id="rL4idEC9B8gkLVKM_BH1-473" value="" style="endArrow=none;html=1;rounded=0;entryX=1;entryY=0.25;entryDx=0;entryDy=0;exitX=0;exitY=0.5;exitDx=0;exitDy=0;" edge="1" parent="1" source="rL4idEC9B8gkLVKM_BH1-472" target="rL4idEC9B8gkLVKM_BH1-419">
          <mxGeometry relative="1" as="geometry">
            <mxPoint x="860" y="1480" as="sourcePoint" />
            <mxPoint x="788.94" y="1532.3200000000002" as="targetPoint" />
          </mxGeometry>
        </mxCell>
        <mxCell id="rL4idEC9B8gkLVKM_BH1-474" value="1" style="resizable=0;html=1;whiteSpace=wrap;align=right;verticalAlign=bottom;" connectable="0" vertex="1" parent="rL4idEC9B8gkLVKM_BH1-473">
          <mxGeometry x="1" relative="1" as="geometry">
            <mxPoint x="131" y="-62" as="offset" />
          </mxGeometry>
        </mxCell>
        <mxCell id="rL4idEC9B8gkLVKM_BH1-475" value="" style="endArrow=none;html=1;rounded=0;exitX=1;exitY=0.5;exitDx=0;exitDy=0;" edge="1" parent="1" source="rL4idEC9B8gkLVKM_BH1-472">
          <mxGeometry relative="1" as="geometry">
            <mxPoint x="980" y="1400" as="sourcePoint" />
            <mxPoint x="1480" y="1310" as="targetPoint" />
          </mxGeometry>
        </mxCell>
        <mxCell id="rL4idEC9B8gkLVKM_BH1-476" value="1" style="resizable=0;html=1;whiteSpace=wrap;align=right;verticalAlign=bottom;" connectable="0" vertex="1" parent="rL4idEC9B8gkLVKM_BH1-475">
          <mxGeometry x="1" relative="1" as="geometry">
            <mxPoint x="-267" y="44" as="offset" />
          </mxGeometry>
        </mxCell>
        <mxCell id="rL4idEC9B8gkLVKM_BH1-477" value="" style="endArrow=none;html=1;rounded=0;dashed=1;dashPattern=1 2;entryX=0.5;entryY=0;entryDx=0;entryDy=0;exitX=0.5;exitY=1;exitDx=0;exitDy=0;" edge="1" parent="1" source="rL4idEC9B8gkLVKM_BH1-351">
          <mxGeometry relative="1" as="geometry">
            <mxPoint x="720" y="910" as="sourcePoint" />
            <mxPoint x="743.8699999999999" y="1100" as="targetPoint" />
            <Array as="points">
              <mxPoint x="750" y="1100" />
            </Array>
          </mxGeometry>
        </mxCell>
        <mxCell id="rL4idEC9B8gkLVKM_BH1-478" value="1" style="resizable=0;html=1;whiteSpace=wrap;align=right;verticalAlign=bottom;" connectable="0" vertex="1" parent="rL4idEC9B8gkLVKM_BH1-477">
          <mxGeometry x="1" relative="1" as="geometry">
            <mxPoint x="13" y="-50" as="offset" />
          </mxGeometry>
        </mxCell>
        <mxCell id="rL4idEC9B8gkLVKM_BH1-479" value="" style="endArrow=none;html=1;rounded=0;dashed=1;dashPattern=1 2;entryX=1;entryY=0;entryDx=0;entryDy=0;exitX=0.5;exitY=1;exitDx=0;exitDy=0;" edge="1" parent="1" source="rL4idEC9B8gkLVKM_BH1-512">
          <mxGeometry relative="1" as="geometry">
            <mxPoint x="750" y="1160" as="sourcePoint" />
            <mxPoint x="603.27" y="1220" as="targetPoint" />
          </mxGeometry>
        </mxCell>
        <mxCell id="rL4idEC9B8gkLVKM_BH1-480" value="N" style="resizable=0;html=1;whiteSpace=wrap;align=right;verticalAlign=bottom;" connectable="0" vertex="1" parent="rL4idEC9B8gkLVKM_BH1-479">
          <mxGeometry x="1" relative="1" as="geometry">
            <mxPoint x="60" y="-31" as="offset" />
          </mxGeometry>
        </mxCell>
        <mxCell id="rL4idEC9B8gkLVKM_BH1-481" value="" style="endArrow=none;html=1;rounded=0;dashed=1;dashPattern=1 2;entryX=1;entryY=0.5;entryDx=0;entryDy=0;exitX=0.25;exitY=1;exitDx=0;exitDy=0;" edge="1" parent="1" source="rL4idEC9B8gkLVKM_BH1-344">
          <mxGeometry relative="1" as="geometry">
            <mxPoint x="1530" y="1320" as="sourcePoint" />
            <mxPoint x="1474.1491226573398" y="1589.7504138189374" as="targetPoint" />
          </mxGeometry>
        </mxCell>
        <mxCell id="rL4idEC9B8gkLVKM_BH1-482" value="1" style="resizable=0;html=1;whiteSpace=wrap;align=right;verticalAlign=bottom;" connectable="0" vertex="1" parent="rL4idEC9B8gkLVKM_BH1-481">
          <mxGeometry x="1" relative="1" as="geometry">
            <mxPoint x="6" y="-50" as="offset" />
          </mxGeometry>
        </mxCell>
        <mxCell id="rL4idEC9B8gkLVKM_BH1-483" value="" style="endArrow=none;html=1;rounded=0;dashed=1;dashPattern=1 2;entryX=1;entryY=0;entryDx=0;entryDy=0;exitX=0;exitY=0.5;exitDx=0;exitDy=0;" edge="1" parent="1" source="rL4idEC9B8gkLVKM_BH1-509" target="rL4idEC9B8gkLVKM_BH1-510">
          <mxGeometry relative="1" as="geometry">
            <mxPoint x="1375.8508773426606" y="1658.5795861810627" as="sourcePoint" />
            <mxPoint x="986.7100000000005" y="1733.0000000000002" as="targetPoint" />
          </mxGeometry>
        </mxCell>
        <mxCell id="rL4idEC9B8gkLVKM_BH1-484" value="1" style="resizable=0;html=1;whiteSpace=wrap;align=right;verticalAlign=bottom;" connectable="0" vertex="1" parent="rL4idEC9B8gkLVKM_BH1-483">
          <mxGeometry x="1" relative="1" as="geometry">
            <mxPoint x="177" y="-50" as="offset" />
          </mxGeometry>
        </mxCell>
        <mxCell id="rL4idEC9B8gkLVKM_BH1-485" value="Generates_ImpactStory&amp;nbsp;" style="shape=rhombus;perimeter=rhombusPerimeter;whiteSpace=wrap;html=1;align=center;" vertex="1" parent="1">
          <mxGeometry x="1570" y="1470" width="160" height="90" as="geometry" />
        </mxCell>
        <mxCell id="rL4idEC9B8gkLVKM_BH1-486" value="" style="endArrow=none;html=1;rounded=0;exitX=0.88;exitY=0.985;exitDx=0;exitDy=0;entryX=0.5;entryY=0;entryDx=0;entryDy=0;exitPerimeter=0;" edge="1" parent="1" source="rL4idEC9B8gkLVKM_BH1-344" target="rL4idEC9B8gkLVKM_BH1-485">
          <mxGeometry relative="1" as="geometry">
            <mxPoint x="1600" y="1550" as="sourcePoint" />
            <mxPoint x="1760" y="1550" as="targetPoint" />
          </mxGeometry>
        </mxCell>
        <mxCell id="rL4idEC9B8gkLVKM_BH1-487" value="1" style="resizable=0;html=1;whiteSpace=wrap;align=right;verticalAlign=bottom;" connectable="0" vertex="1" parent="rL4idEC9B8gkLVKM_BH1-486">
          <mxGeometry x="1" relative="1" as="geometry">
            <mxPoint x="3" y="-70" as="offset" />
          </mxGeometry>
        </mxCell>
        <mxCell id="rL4idEC9B8gkLVKM_BH1-488" value="" style="endArrow=none;html=1;rounded=0;entryX=0.5;entryY=0;entryDx=0;entryDy=0;exitX=0.5;exitY=1;exitDx=0;exitDy=0;" edge="1" parent="1" source="rL4idEC9B8gkLVKM_BH1-485" target="rL4idEC9B8gkLVKM_BH1-350">
          <mxGeometry relative="1" as="geometry">
            <mxPoint x="1630" y="1490" as="sourcePoint" />
            <mxPoint x="1790" y="1490" as="targetPoint" />
          </mxGeometry>
        </mxCell>
        <mxCell id="rL4idEC9B8gkLVKM_BH1-489" value="N" style="resizable=0;html=1;whiteSpace=wrap;align=right;verticalAlign=bottom;" connectable="0" vertex="1" parent="rL4idEC9B8gkLVKM_BH1-488">
          <mxGeometry x="1" relative="1" as="geometry">
            <mxPoint x="15" y="-100" as="offset" />
          </mxGeometry>
        </mxCell>
        <mxCell id="rL4idEC9B8gkLVKM_BH1-490" value="Generates_Analytics&lt;div&gt;&lt;br/&gt;&lt;/div&gt;" style="shape=rhombus;perimeter=rhombusPerimeter;whiteSpace=wrap;html=1;align=center;rotation=-30;" vertex="1" parent="1">
          <mxGeometry x="1730" y="1478.92" width="157.62" height="103.3" as="geometry" />
        </mxCell>
        <mxCell id="rL4idEC9B8gkLVKM_BH1-491" value="" style="endArrow=none;html=1;rounded=0;dashed=1;dashPattern=1 2;entryX=1;entryY=1;entryDx=0;entryDy=0;exitX=0.5;exitY=0;exitDx=0;exitDy=0;" edge="1" parent="1" source="rL4idEC9B8gkLVKM_BH1-490">
          <mxGeometry relative="1" as="geometry">
            <mxPoint x="1773.04" y="1490" as="sourcePoint" />
            <mxPoint x="1653.04" y="1310" as="targetPoint" />
          </mxGeometry>
        </mxCell>
        <mxCell id="rL4idEC9B8gkLVKM_BH1-492" value="M" style="resizable=0;html=1;whiteSpace=wrap;align=left;verticalAlign=bottom;" connectable="0" vertex="1" parent="rL4idEC9B8gkLVKM_BH1-491">
          <mxGeometry x="-1" relative="1" as="geometry">
            <mxPoint x="-9" y="-16" as="offset" />
          </mxGeometry>
        </mxCell>
        <mxCell id="rL4idEC9B8gkLVKM_BH1-493" value="" style="endArrow=none;html=1;rounded=0;dashed=1;dashPattern=1 2;exitX=0.5;exitY=1;exitDx=0;exitDy=0;entryX=0;entryY=0;entryDx=0;entryDy=0;" edge="1" parent="1" source="rL4idEC9B8gkLVKM_BH1-490" target="rL4idEC9B8gkLVKM_BH1-349">
          <mxGeometry relative="1" as="geometry">
            <mxPoint x="2050" y="1450" as="sourcePoint" />
            <mxPoint x="1940" y="1730" as="targetPoint" />
          </mxGeometry>
        </mxCell>
        <mxCell id="rL4idEC9B8gkLVKM_BH1-494" value="N" style="resizable=0;html=1;whiteSpace=wrap;align=right;verticalAlign=bottom;" connectable="0" vertex="1" parent="rL4idEC9B8gkLVKM_BH1-493">
          <mxGeometry x="1" relative="1" as="geometry">
            <mxPoint x="-10" y="-70" as="offset" />
          </mxGeometry>
        </mxCell>
        <mxCell id="rL4idEC9B8gkLVKM_BH1-495" value="Affects_Ranking&amp;nbsp;" style="shape=rhombus;perimeter=rhombusPerimeter;whiteSpace=wrap;html=1;align=center;rotation=20;" vertex="1" parent="1">
          <mxGeometry x="1930" y="1310" width="120" height="60" as="geometry" />
        </mxCell>
        <mxCell id="rL4idEC9B8gkLVKM_BH1-496" value="" style="endArrow=none;html=1;rounded=0;dashed=1;dashPattern=1 2;entryX=1;entryY=0.75;entryDx=0;entryDy=0;" edge="1" parent="1" target="rL4idEC9B8gkLVKM_BH1-344">
          <mxGeometry relative="1" as="geometry">
            <mxPoint x="1930" y="1320" as="sourcePoint" />
            <mxPoint x="1970" y="1310" as="targetPoint" />
            <Array as="points" />
          </mxGeometry>
        </mxCell>
        <mxCell id="rL4idEC9B8gkLVKM_BH1-497" value="M" style="resizable=0;html=1;whiteSpace=wrap;align=left;verticalAlign=bottom;" connectable="0" vertex="1" parent="rL4idEC9B8gkLVKM_BH1-496">
          <mxGeometry x="-1" relative="1" as="geometry">
            <mxPoint x="-80" y="-10" as="offset" />
          </mxGeometry>
        </mxCell>
        <mxCell id="rL4idEC9B8gkLVKM_BH1-498" value="" style="endArrow=none;html=1;rounded=0;dashed=1;dashPattern=1 2;exitX=1;exitY=0.5;exitDx=0;exitDy=0;entryX=0;entryY=0;entryDx=0;entryDy=0;" edge="1" parent="1" source="rL4idEC9B8gkLVKM_BH1-495" target="rL4idEC9B8gkLVKM_BH1-348">
          <mxGeometry relative="1" as="geometry">
            <mxPoint x="2070" y="1490" as="sourcePoint" />
            <mxPoint x="2230" y="1490" as="targetPoint" />
          </mxGeometry>
        </mxCell>
        <mxCell id="rL4idEC9B8gkLVKM_BH1-499" value="N" style="resizable=0;html=1;whiteSpace=wrap;align=right;verticalAlign=bottom;" connectable="0" vertex="1" parent="rL4idEC9B8gkLVKM_BH1-498">
          <mxGeometry x="1" relative="1" as="geometry">
            <mxPoint x="-45" y="-40" as="offset" />
          </mxGeometry>
        </mxCell>
        <mxCell id="rL4idEC9B8gkLVKM_BH1-500" value="&lt;font style=&quot;font-size: 6px;&quot;&gt;Is_Followed_By&lt;/font&gt;" style="shape=rhombus;perimeter=rhombusPerimeter;whiteSpace=wrap;html=1;align=center;" vertex="1" parent="1">
          <mxGeometry x="1525" y="1380" width="90" height="60" as="geometry" />
        </mxCell>
        <mxCell id="rL4idEC9B8gkLVKM_BH1-501" value="" style="shape=link;html=1;rounded=0;entryX=0;entryY=0.5;entryDx=0;entryDy=0;exitX=0.346;exitY=1.025;exitDx=0;exitDy=0;exitPerimeter=0;" edge="1" parent="1" source="rL4idEC9B8gkLVKM_BH1-344" target="rL4idEC9B8gkLVKM_BH1-500">
          <mxGeometry relative="1" as="geometry">
            <mxPoint x="1530" y="1310" as="sourcePoint" />
            <mxPoint x="1760" y="1280" as="targetPoint" />
          </mxGeometry>
        </mxCell>
        <mxCell id="rL4idEC9B8gkLVKM_BH1-502" value="1" style="resizable=0;html=1;whiteSpace=wrap;align=right;verticalAlign=bottom;" connectable="0" vertex="1" parent="rL4idEC9B8gkLVKM_BH1-501">
          <mxGeometry x="1" relative="1" as="geometry">
            <mxPoint x="20" y="-30" as="offset" />
          </mxGeometry>
        </mxCell>
        <mxCell id="rL4idEC9B8gkLVKM_BH1-503" value="&lt;font style=&quot;font-size: 8px;&quot;&gt;report1&lt;/font&gt;" style="text;html=1;align=center;verticalAlign=middle;resizable=0;points=[];autosize=1;strokeColor=none;fillColor=none;rotation=-75;" vertex="1" parent="1">
          <mxGeometry x="1520" y="1330" width="50" height="30" as="geometry" />
        </mxCell>
        <mxCell id="rL4idEC9B8gkLVKM_BH1-504" value="&lt;font style=&quot;font-size: 6px;&quot;&gt;report2&lt;/font&gt;" style="text;html=1;align=center;verticalAlign=middle;resizable=0;points=[];autosize=1;strokeColor=none;fillColor=none;rotation=90;" vertex="1" parent="1">
          <mxGeometry x="1575" y="1314.1399999999999" width="40" height="30" as="geometry" />
        </mxCell>
        <mxCell id="rL4idEC9B8gkLVKM_BH1-505" value="Title" style="ellipse;whiteSpace=wrap;html=1;align=center;" vertex="1" parent="1">
          <mxGeometry x="1610" y="1100" width="100" height="40" as="geometry" />
        </mxCell>
        <mxCell id="rL4idEC9B8gkLVKM_BH1-506" value="" style="endArrow=none;html=1;rounded=0;entryX=0.5;entryY=1;entryDx=0;entryDy=0;exitX=0.75;exitY=0;exitDx=0;exitDy=0;" edge="1" parent="1" source="rL4idEC9B8gkLVKM_BH1-344" target="rL4idEC9B8gkLVKM_BH1-505">
          <mxGeometry relative="1" as="geometry">
            <mxPoint x="1620" y="1230" as="sourcePoint" />
            <mxPoint x="1770" y="1144.33" as="targetPoint" />
          </mxGeometry>
        </mxCell>
        <mxCell id="rL4idEC9B8gkLVKM_BH1-507" value="" style="shape=link;html=1;rounded=0;entryX=0.972;entryY=0.413;entryDx=0;entryDy=0;entryPerimeter=0;exitX=0.009;exitY=0.27;exitDx=0;exitDy=0;exitPerimeter=0;" edge="1" parent="1" source="rL4idEC9B8gkLVKM_BH1-504" target="rL4idEC9B8gkLVKM_BH1-500">
          <mxGeometry relative="1" as="geometry">
            <mxPoint x="1520" y="1370" as="sourcePoint" />
            <mxPoint x="1680" y="1370" as="targetPoint" />
          </mxGeometry>
        </mxCell>
        <mxCell id="rL4idEC9B8gkLVKM_BH1-508" value="N" style="resizable=0;html=1;whiteSpace=wrap;align=right;verticalAlign=bottom;" connectable="0" vertex="1" parent="rL4idEC9B8gkLVKM_BH1-507">
          <mxGeometry x="1" relative="1" as="geometry" />
        </mxCell>
        <mxCell id="rL4idEC9B8gkLVKM_BH1-509" value="Has_Protection&amp;nbsp;" style="shape=rhombus;double=1;perimeter=rhombusPerimeter;whiteSpace=wrap;html=1;align=center;rotation=-45;" vertex="1" parent="1">
          <mxGeometry x="1380" y="1580" width="112.44" height="104.14" as="geometry" />
        </mxCell>
        <mxCell id="rL4idEC9B8gkLVKM_BH1-510" value="WHISTLEBLOWERPROTECTION" style="shape=ext;margin=3;double=1;whiteSpace=wrap;html=1;align=center;" vertex="1" parent="1">
          <mxGeometry x="805.6800000000001" y="1755.43" width="196.13" height="110" as="geometry" />
        </mxCell>
        <mxCell id="rL4idEC9B8gkLVKM_BH1-511" value="&lt;span style=&quot;border-bottom: 1px dotted&quot;&gt;Protection_ID&lt;/span&gt;" style="ellipse;whiteSpace=wrap;html=1;align=center;" vertex="1" parent="1">
          <mxGeometry x="850" y="1950" width="150" height="60.03" as="geometry" />
        </mxCell>
        <mxCell id="rL4idEC9B8gkLVKM_BH1-512" value="&amp;nbsp;Subscribes_To&amp;nbsp;" style="shape=rhombus;double=1;perimeter=rhombusPerimeter;whiteSpace=wrap;html=1;align=center;" vertex="1" parent="1">
          <mxGeometry x="690" y="1095" width="120" height="60" as="geometry" />
        </mxCell>
        <mxCell id="rL4idEC9B8gkLVKM_BH1-513" value="Alert" style="shape=ext;margin=3;double=1;whiteSpace=wrap;html=1;align=center;" vertex="1" parent="1">
          <mxGeometry x="518.8699999999999" y="1215" width="100" height="40" as="geometry" />
        </mxCell>
        <mxCell id="rL4idEC9B8gkLVKM_BH1-514" value="&lt;span style=&quot;border-bottom: 1px dotted&quot;&gt;Alert_ID&lt;/span&gt;" style="ellipse;whiteSpace=wrap;html=1;align=center;" vertex="1" parent="1">
          <mxGeometry x="383.29999999999995" y="1250" width="100" height="40" as="geometry" />
        </mxCell>
      </root>
    </mxGraphModel>
  </diagram>
</mxfile>
